<?xml version="1.0" encoding="utf-8"?>
<!-- Generator: Adobe Illustrator 19.0.0, SVG Export Plug-In . SVG Version: 6.00 Build 0)  -->
<svg version="1.1" id="Capa_1" xmlns="http://www.w3.org/2000/svg" xmlns:xlink="http://www.w3.org/1999/xlink" x="0px" y="0px"
	 viewBox="-158 530 12 14" style="enable-background:new -158 530 12 14;" xml:space="preserve">
<g>
	<path d="M-152,531c-3.3,0-6,2.7-6,6s2.7,6,6,6c1.6,0,3-0.6,4.2-1.7c0.1-0.1,0.1-0.2,0-0.3c-0.1-0.1-0.2-0.1-0.3,0
		c-1,1-2.4,1.5-3.8,1.5c-3,0-5.5-2.5-5.5-5.5s2.5-5.5,5.5-5.5c3,0,5.5,2.5,5.5,5.5c0,0.7-0.1,1.4-0.4,2c0,0.1,0,0.3,0.1,0.3
		c0.1,0,0.3,0,0.3-0.1c0.3-0.7,0.4-1.4,0.4-2.2C-146,533.7-148.7,531-152,531z"/>
	<path d="M-151.2,537.5c-0.1-0.1-0.3-0.1-0.3,0c-0.1,0.1-0.1,0.3,0,0.3l1.9,1.9c0,0,0.1,0.1,0.2,0.1c0.1,0,0.1,0,0.2-0.1
		c0.1-0.1,0.1-0.3,0-0.3L-151.2,537.5z"/>
	<path d="M-152.9,536.4c0,0,0.1,0.1,0.2,0.1s0.1,0,0.2-0.1c0.1-0.1,0.1-0.3,0-0.3l-1.8-1.8c-0.1-0.1-0.3-0.1-0.3,0
		c-0.1,0.1-0.1,0.3,0,0.3L-152.9,536.4z"/>
	<path d="M-149.3,534.3c-0.1-0.1-0.3-0.1-0.3,0l-5.1,5.1c-0.1,0.1-0.1,0.2,0,0.3c0,0,0.1,0.1,0.2,0.1c0.1,0,0.1,0,0.2-0.1l5.1-5.1
		C-149.2,534.5-149.2,534.3-149.3,534.3z"/>
</g>
</svg>
