<?xml version="1.0" encoding="utf-8"?>
<!-- Generator: Adobe Illustrator 19.0.0, SVG Export Plug-In . SVG Version: 6.00 Build 0)  -->
<svg version="1.1" id="Capa_1" xmlns="http://www.w3.org/2000/svg" xmlns:xlink="http://www.w3.org/1999/xlink" x="0px" y="0px"
	 viewBox="-158 530 12 14" style="enable-background:new -158 530 12 14;" xml:space="preserve">
<g>
	<path d="M-146.1,539.8c-0.1-0.1-0.3-0.1-0.3,0l-2.4,2.4v-11c0-0.1-0.1-0.2-0.2-0.2c-0.1,0-0.2,0.1-0.2,0.2v11l-2.4-2.4
		c-0.1-0.1-0.3-0.1-0.3,0c-0.1,0.1-0.1,0.3,0,0.3l2.9,2.9c0,0,0.1,0.1,0.2,0.1c0.1,0,0.1,0,0.2-0.1l2.9-2.9
		C-146,540-146,539.9-146.1,539.8z"/>
	<path d="M-157.8,531.5h7.4c0.1,0,0.2-0.1,0.2-0.2c0-0.1-0.1-0.2-0.2-0.2h-7.4c-0.1,0-0.2,0.1-0.2,0.2
		C-158,531.3-157.9,531.5-157.8,531.5z"/>
	<path d="M-157.8,534.3h7.4c0.1,0,0.2-0.1,0.2-0.2c0-0.1-0.1-0.2-0.2-0.2h-7.4c-0.1,0-0.2,0.1-0.2,0.2
		C-158,534.2-157.9,534.3-157.8,534.3z"/>
	<path d="M-157.8,537.2h7.4c0.1,0,0.2-0.1,0.2-0.2c0-0.1-0.1-0.2-0.2-0.2h-7.4c-0.1,0-0.2,0.1-0.2,0.2
		C-158,537.1-157.9,537.2-157.8,537.2z"/>
	<path d="M-152.9,539.6h-4.8c-0.1,0-0.2,0.1-0.2,0.2c0,0.1,0.1,0.2,0.2,0.2h4.8c0.1,0,0.2-0.1,0.2-0.2
		C-152.7,539.7-152.8,539.6-152.9,539.6z"/>
	<path d="M-152.9,542.5h-4.8c-0.1,0-0.2,0.1-0.2,0.2c0,0.1,0.1,0.2,0.2,0.2h4.8c0.1,0,0.2-0.1,0.2-0.2
		C-152.7,542.6-152.8,542.5-152.9,542.5z"/>
</g>
</svg>
