<?xml version="1.0" encoding="utf-8"?>
<!-- Generator: Adobe Illustrator 19.0.0, SVG Export Plug-In . SVG Version: 6.00 Build 0)  -->
<svg version="1.1" id="Layer_1" xmlns="http://www.w3.org/2000/svg" xmlns:xlink="http://www.w3.org/1999/xlink" x="0px" y="0px"
	 viewBox="-296 389 20.3 14" style="enable-background:new -296 389 20.3 14;" xml:space="preserve">
<style type="text/css">
	.st0{fill:#333333;}
</style>
<title>Volume Max</title>
<g id="Page-1">
	<g id="Player" transform="translate(-2500.000000, -315.000000)">
		<g id="Volume-Max" transform="translate(2500.000000, 315.000000)">
			<g id="Fill-1-_x2B_-Stroke-3">
				<path id="Fill-1" class="st0" d="M-290.7,393.1h-5.3v5.8h5.3l5.2,4.1v-14L-290.7,393.1z"/>
				<path id="Stroke-3" class="st0" d="M-279.3,391.2c2.6,2.6,2.6,7,0,9.6l-0.8,0.8c-0.3,0.3-0.3,0.8,0,1.2s0.8,0.3,1.2,0l0.8-0.8
					c3.3-3.3,3.3-8.6,0-11.9l-0.8-0.8c-0.3-0.3-0.8-0.3-1.2,0c-0.3,0.3-0.3,0.8,0,1.2L-279.3,391.2z M-283,394
					c1.1,1.1,1.1,2.8,0,3.9l-0.4,0.4c-0.3,0.3-0.3,0.8,0,1.2c0.3,0.3,0.8,0.3,1.2,0l0.4-0.4c1.7-1.7,1.7-4.5,0-6.2l-0.4-0.4
					c-0.3-0.3-0.8-0.3-1.2,0s-0.3,0.8,0,1.2L-283,394z"/>
			</g>
		</g>
	</g>
</g>
</svg>
